<svg width="17" height="17" viewBox="0 0 17 17" fill="none" xmlns="http://www.w3.org/2000/svg">
<path d="M5.383 9.672C5.32988 9.61888 5.28773 9.55582 5.25898 9.48641C5.23023 9.41701 5.21543 9.34262 5.21543 9.2675C5.21543 9.19237 5.23023 9.11798 5.25898 9.04858C5.28773 8.97917 5.32988 8.91611 5.383 8.863L10.595 3.652C10.7003 3.54581 10.843 3.4851 10.9926 3.48285C11.1421 3.48061 11.2866 3.53702 11.395 3.64L11.551 3.787C11.6065 3.83926 11.6509 3.90209 11.6818 3.97178C11.7127 4.04148 11.7293 4.11663 11.7307 4.19284C11.7321 4.26905 11.7182 4.34476 11.6899 4.41554C11.6617 4.48632 11.6195 4.55073 11.566 4.605L6.97 9.268L11.57 13.909C11.6232 13.9627 11.6652 14.0264 11.6937 14.0965C11.7221 14.1666 11.7363 14.2416 11.7356 14.3172C11.7348 14.3928 11.7191 14.4675 11.6893 14.537C11.6595 14.6064 11.6163 14.6693 11.562 14.722L11.395 14.884C11.2873 14.9878 11.1433 15.0452 10.9938 15.0441C10.8442 15.043 10.7011 14.9834 10.595 14.878L5.383 9.672Z" fill="white"/>
</svg>
