<svg width="30" height="31" viewBox="0 0 30 31" fill="none" xmlns="http://www.w3.org/2000/svg">
<path d="M14.865 0.992004C11.9861 0.992004 9.17184 1.8457 6.77812 3.44513C4.38439 5.04457 2.51872 7.3179 1.41701 9.97766C0.315297 12.6374 0.02704 15.5642 0.588686 18.3877C1.15033 21.2113 2.53666 23.805 4.57235 25.8407C6.60804 27.8763 9.20168 29.2627 12.0253 29.8243C14.8489 30.386 17.7756 30.0977 20.4353 28.996C23.0951 27.8943 25.3684 26.0286 26.9679 23.6349C28.5673 21.2412 29.421 18.4269 29.421 15.548C29.421 11.6875 27.8874 7.98514 25.1576 5.25536C22.4279 2.52558 18.7255 0.992004 14.865 0.992004Z" fill="black"/>
<path d="M20.174 19.189L15.016 15.548L20.174 11.907V19.189ZM14.713 11.907V19.189L9.55499 15.548L14.713 11.907Z" fill="white"/>
</svg>
