<svg width="40" height="40" viewBox="0 0 40 40" fill="none" xmlns="http://www.w3.org/2000/svg">
<path d="M20 0.485992C23.8385 0.485992 27.5909 1.62425 30.7825 3.75683C33.9741 5.88941 36.4617 8.92052 37.9306 12.4669C39.3996 16.0132 39.7839 19.9155 39.0351 23.6803C38.2862 27.4451 36.4378 30.9033 33.7235 33.6175C31.0093 36.3318 27.5511 38.1802 23.7863 38.9291C20.0215 39.6779 16.1192 39.2936 12.5729 37.8246C9.02653 36.3557 5.99541 33.8681 3.86283 30.6765C1.73025 27.4849 0.591995 23.7325 0.591995 19.894C0.591995 14.7467 2.63676 9.81017 6.27647 6.17046C9.91617 2.53076 14.8527 0.485992 20 0.485992Z" fill="black"/>
<path d="M15.168 25.531H18.389V14.257H15.168V25.531ZM21.61 14.257V25.531H24.831V14.257H21.61Z" fill="white"/>
</svg>
