<svg width="30" height="31" viewBox="0 0 30 31" fill="none" xmlns="http://www.w3.org/2000/svg">
<path d="M15.136 0.992004C18.0149 0.992004 20.8291 1.8457 23.2229 3.44513C25.6166 5.04457 27.4823 7.3179 28.584 9.97766C29.6857 12.6374 29.9739 15.5642 29.4123 18.3877C28.8507 21.2113 27.4643 23.805 25.4286 25.8407C23.3929 27.8763 20.7993 29.2627 17.9757 29.8243C15.1521 30.386 12.2254 30.0977 9.56565 28.996C6.90588 27.8943 4.63255 26.0286 3.03311 23.6349C1.43368 21.2412 0.579987 18.4269 0.579987 15.548C0.579987 11.6875 2.11356 7.98514 4.84334 5.25536C7.57312 2.52558 11.2755 0.992004 15.136 0.992004Z" fill="black"/>
<path d="M9.82599 19.189L14.984 15.548L9.82599 11.907V19.189ZM15.287 11.907V19.189L20.445 15.548L15.287 11.907Z" fill="white"/>
</svg>
