<svg width="17" height="18" viewBox="0 0 17 18" fill="none" xmlns="http://www.w3.org/2000/svg">
<path d="M7.733 15.035C9.0755 15.035 10.3879 14.6369 11.5041 13.8911C12.6204 13.1452 13.4904 12.0852 14.0042 10.8449C14.518 9.60459 14.6525 8.2398 14.3907 6.92308C14.1288 5.60637 13.4824 4.39686 12.5332 3.4475C11.584 2.49814 10.3746 1.85157 9.05789 1.58954C7.74121 1.32751 6.37641 1.46179 5.13605 1.97541C3.89569 2.48902 2.83547 3.3589 2.08948 4.47505C1.34348 5.5912 0.945205 6.90349 0.945007 8.24599C0.944876 9.13748 1.12036 10.0203 1.46143 10.844C1.8025 11.6676 2.30246 12.416 2.9328 13.0465C3.56314 13.6769 4.31151 14.177 5.13513 14.5182C5.95876 14.8594 6.8415 15.035 7.733 15.035Z" stroke="#14142B" stroke-width="1.5"/>
<path d="M16.03 16.543L13.603 14.116" stroke="#14142B" stroke-width="1.5"/>
</svg>
