<svg width="13" height="13" viewBox="0 0 13 13" fill="none" xmlns="http://www.w3.org/2000/svg">
<path fill-rule="evenodd" clip-rule="evenodd" d="M7.108 1.385L8.62302 3.958L11.475 4.676C11.5908 4.70932 11.6964 4.77091 11.7824 4.85523C11.8685 4.93956 11.9322 5.04397 11.9678 5.15905C12.0034 5.27413 12.0098 5.39625 11.9865 5.51443C11.9631 5.63261 11.9107 5.74313 11.834 5.83601L9.93402 8.16799L10.161 11.23C10.1767 11.4158 10.119 11.6003 10.0003 11.744C9.88164 11.8877 9.71136 11.9793 9.526 11.999C9.40304 12.0069 9.28027 11.981 9.17102 11.924L6.5 10.776L3.784 11.944C3.69947 11.9797 3.60861 11.9978 3.51688 11.9973C3.42514 11.9968 3.33445 11.9777 3.25031 11.9412C3.16616 11.9046 3.09031 11.8514 3.02734 11.7846C2.96438 11.7179 2.91562 11.6391 2.884 11.553C2.84384 11.4503 2.82712 11.34 2.83502 11.23L3.06201 8.16799L1.16202 5.83601C1.04216 5.69035 0.983071 5.50407 0.99704 5.31596C1.01101 5.12784 1.09694 4.95236 1.237 4.826C1.32403 4.7461 1.43121 4.69146 1.547 4.66799L4.37201 3.958L5.91 1.342C5.95493 1.2629 6.01545 1.19373 6.08786 1.13867C6.16027 1.0836 6.2431 1.04378 6.33133 1.02163C6.41956 0.999478 6.51136 0.995445 6.6012 1.00977C6.69103 1.0241 6.77704 1.0565 6.854 1.105C6.96047 1.17477 7.0467 1.27134 7.104 1.385H7.108Z" fill="#E2E2E2" stroke="#D9D9D9"/>
</svg>
