<svg width="24" height="24" viewBox="0 0 24 24" fill="none" xmlns="http://www.w3.org/2000/svg">
<path d="M12 24C18.6274 24 24 18.6274 24 12C24 5.37258 18.6274 0 12 0C5.37258 0 0 5.37258 0 12C0 18.6274 5.37258 24 12 24Z" fill="#4FBDBC"/>
<path d="M16.617 11.157C16.7832 11.2608 16.9202 11.4052 17.0152 11.5765C17.1101 11.7479 17.16 11.9406 17.16 12.1365C17.16 12.3324 17.1101 12.5251 17.0152 12.6965C16.9202 12.8678 16.7832 13.0122 16.617 13.116L10.711 16.807C10.5362 16.9162 10.3354 16.9767 10.1293 16.9821C9.9233 16.9875 9.71956 16.9377 9.53927 16.8378C9.35898 16.7379 9.2087 16.5916 9.10403 16.414C8.99937 16.2364 8.94412 16.0341 8.94402 15.828V8.446C8.94394 8.2398 8.99906 8.03734 9.10365 7.85964C9.20825 7.68194 9.35851 7.53548 9.53883 7.43547C9.71915 7.33546 9.92296 7.28555 10.1291 7.29092C10.3352 7.29629 10.5362 7.35674 10.711 7.466L16.617 11.157Z" fill="white"/>
</svg>
